<?xml version="1.0" standalone="no"?>
<!DOCTYPE svg PUBLIC "-//W3C//DTD SVG 20010904//EN"
 "http://www.w3.org/TR/2001/REC-SVG-20010904/DTD/svg10.dtd">
<svg version="1.0" xmlns="http://www.w3.org/2000/svg"
 width="256.000000pt" height="256.000000pt" viewBox="0 0 256.000000 256.000000"
 preserveAspectRatio="xMidYMid meet">
<metadata>
Created by potrace 1.14, written by Peter Selinger 2001-2017
</metadata>
<g transform="translate(0.000000,256.000000) scale(0.100000,-0.100000)"
fill="#000000" stroke="none">
<path d="M26 2435 l-26 -24 0 -1130 0 -1129 31 -26 c30 -25 35 -26 168 -26
127 0 141 2 166 22 52 41 56 64 55 359 -1 295 1 309 56 329 41 16 488 13 527
-3 61 -26 60 -21 58 -327 -2 -304 -1 -315 55 -359 26 -21 32 -21 705 -21 l677
0 31 26 31 26 0 544 c0 534 0 544 -20 564 -12 12 -32 25 -46 30 -14 6 -170 10
-360 10 -371 0 -387 -2 -424 -62 -17 -28 -20 -50 -20 -153 0 -101 3 -125 20
-152 35 -57 58 -63 265 -63 l186 0 -3 -176 -3 -176 -28 -24 -28 -24 -260 0
-261 0 -29 29 -29 30 0 664 c1 605 2 667 18 698 25 51 56 57 314 58 l227 2 33
-30 33 -29 2 -163 1 -163 36 -33 36 -33 137 0 c120 0 142 3 171 20 l32 20 0
439 0 440 -26 20 c-27 21 -28 21 -1254 21 l-1227 0 -27 -25z m993 -496 c59
-21 61 -33 61 -399 l0 -332 -29 -29 -29 -29 -272 0 c-166 0 -279 4 -290 10
-39 21 -41 41 -41 392 1 368 0 360 56 384 39 17 496 19 544 3z"/>
</g>
</svg>
